# xmcd
#
# Track frame offsets:
#	150
#	14857
#	29185
#	44622
#	60957
#	76215
#	91362
#	106442
#	118732
#	133962
#	145060
#	156692
#	173270
#	188182
#	202122
#	215410
#	233655
#	249227
#	263332
#	280810
#	297062
#	312535
#
# Disc length: 4361 seconds
# Revision: 4
# Processed by: cddbd v1.5.2PL0 Copyright (c) Steve Scherf et al.
# Submitted via: dBpowerAMP V12.0
#
DISCID=47110716
DTITLE=Various Artist - CBS CD '88
DYEAR=1988
DGENRE=Country
TTITLE0=The O'Kanes - Just Lovin' You
TTITLE1=Rosanne Cash - Tennessee Flat Top Box
TTITLE2=Merle Haggard - Twinkle, Twinkle Lucky Star
TTITLE3=Vern Gosdin - Do You Believe Me Now
TTITLE4=Ricky Van Shelton - Life Turned Her That Way
TTITLE5=Rodney Crowell and Rosanne Cash - It's Such A Small World
TTITLE6=The O'Kanes - One True Love
TTITLE7=Sweethearts Of The Rodeo - Satisfy You
TTITLE8=Rosanne Cash - If You Change Your Mind
TTITLE9=Vern Gosdin - Set 'Em Up Joe
TTITLE10=Ricky Van Shelton - Don't We All Have The Right
TTITLE11=Shenandoa - She Doesn't Cry Anymore
TTITLE12=Rodney Crowell - I Couldn't Leave You If I Tried
TTITLE13=The O'kanes - Blue Love
TTITLE14=Sweethearts Of The Rodeo - Blue To The Bone
TTITLE15=Rosanne Cash - Runaway Train
TTITLE16=The Charlie Daniels Band - Boogie Woogie Fiddle Country Blues
TTITLE17=Ricky Van Shelton - I'll Leave This World Loving You
TTITLE18=Vern Gosdin - Chisled In Stone
TTITLE19=Willie Nelson and Julio Iglesias - Spanish Eyes
TTITLE20=Shenandoah - Mama Knows
TTITLE21=Rodney Crowell - She's Crazy For Leavin'
EXTD=
EXTT0=
EXTT1=
EXTT2=
EXTT3=
EXTT4=
EXTT5=
EXTT6=
EXTT7=
EXTT8=
EXTT9=
EXTT10=
EXTT11=
EXTT12=
EXTT13=
EXTT14=
EXTT15=
EXTT16=
EXTT17=
EXTT18=
EXTT19=
EXTT20=
EXTT21=
PLAYORDER=
